<svg width="11" height="10" viewBox="0 0 11 10" fill="none" xmlns="http://www.w3.org/2000/svg">
<path d="M10.1341 3.6786C10.117 3.62578 10.0854 3.57881 10.043 3.54301C10.0006 3.50722 9.94895 3.48403 9.89401 3.47609L6.74809 3.01897L5.34084 0.165568C5.31623 0.115857 5.27822 0.0740131 5.2311 0.0447576C5.18398 0.0155021 5.12962 0 5.07416 0C5.01869 0 4.96433 0.0155021 4.91721 0.0447576C4.87009 0.0740131 4.83208 0.115857 4.80748 0.165568L3.40022 3.01682L0.254303 3.47394C0.199463 3.482 0.147963 3.50522 0.10561 3.54098C0.0632555 3.57674 0.0317307 3.62362 0.0145882 3.67633C-0.00255433 3.72905 -0.00463305 3.7855 0.00858632 3.83934C0.0218057 3.89317 0.0497976 3.94224 0.0894072 3.98102L2.36572 6.20003L1.8286 9.33383C1.81961 9.38824 1.82591 9.44408 1.84681 9.49512C1.8677 9.54616 1.90237 9.59038 1.94693 9.62286C1.9915 9.65534 2.04422 9.6748 2.0992 9.67906C2.15418 9.68332 2.20926 9.67222 2.2583 9.64699L5.07442 8.16926L7.8884 9.6486C7.93748 9.67388 7.99263 9.68499 8.04767 9.68072C8.10271 9.67644 8.15547 9.65694 8.20006 9.62438C8.24465 9.59183 8.27931 9.54751 8.30015 9.49639C8.321 9.44527 8.32721 9.38935 8.3181 9.3349L7.78098 6.20111L10.0578 3.98209C10.0975 3.94362 10.1257 3.89482 10.1392 3.84121C10.1526 3.78759 10.1509 3.73127 10.1341 3.6786Z" fill="#FFB801"/>
</svg>
